<?xml version="1.0" encoding="UTF-8" standalone="no"?>
<svg
   width="1280"
   height="1280"
   viewBox="0 0 1280 1280"
   fill="none"
   version="1.1"
   id="svg15"
   sodipodi:docname="abstract_signal.svg"
   inkscape:version="1.4.3 (0d15f75, 2025-12-25)"
   xmlns:inkscape="http://www.inkscape.org/namespaces/inkscape"
   xmlns:sodipodi="http://sodipodi.sourceforge.net/DTD/sodipodi-0.dtd"
   xmlns="http://www.w3.org/2000/svg"
   xmlns:svg="http://www.w3.org/2000/svg">
  <sodipodi:namedview
     id="namedview15"
     pagecolor="#ffffff"
     bordercolor="#000000"
     borderopacity="0.25"
     inkscape:showpageshadow="2"
     inkscape:pageopacity="0.0"
     inkscape:pagecheckerboard="0"
     inkscape:deskcolor="#d1d1d1"
     inkscape:zoom="0.90234375"
     inkscape:cx="639.44589"
     inkscape:cy="640"
     inkscape:window-width="2400"
     inkscape:window-height="1394"
     inkscape:window-x="-11"
     inkscape:window-y="-11"
     inkscape:window-maximized="1"
     inkscape:current-layer="svg15" />
  <defs
     id="defs9">
    <radialGradient
       id="bg"
       cx="0"
       cy="0"
       r="1"
       gradientUnits="userSpaceOnUse"
       gradientTransform="translate(618 650) rotate(90) scale(760)">
      <stop
         stop-color="#12141B"
         id="stop1" />
      <stop
         offset="1"
         stop-color="#090B11"
         id="stop2" />
    </radialGradient>
    <linearGradient
       id="warm"
       x1="196"
       y1="244"
       x2="1118"
       y2="1032"
       gradientUnits="userSpaceOnUse">
      <stop
         stop-color="#FFEDE4"
         id="stop3" />
      <stop
         offset="0.42"
         stop-color="#F4A07F"
         id="stop4" />
      <stop
         offset="1"
         stop-color="#C2401F"
         id="stop5" />
    </linearGradient>
    <radialGradient
       id="mist"
       cx="0"
       cy="0"
       r="1"
       gradientUnits="userSpaceOnUse"
       gradientTransform="translate(540 472) rotate(53) scale(460 320)">
      <stop
         stop-color="#FFF5EF"
         stop-opacity="0.58"
         id="stop6" />
      <stop
         offset="1"
         stop-color="#FFF5EF"
         stop-opacity="0"
         id="stop7" />
    </radialGradient>
    <pattern
       id="points"
       x="0"
       y="0"
       width="18"
       height="18"
       patternUnits="userSpaceOnUse">
      <circle
         cx="2"
         cy="2"
         r="1.15"
         fill="#FFE8DD"
         fill-opacity="0.44"
         id="circle7" />
      <circle
         cx="12"
         cy="7"
         r="0.95"
         fill="#F28C65"
         fill-opacity="0.38"
         id="circle8" />
      <circle
         cx="6"
         cy="14"
         r="0.82"
         fill="#FFDCCF"
         fill-opacity="0.3"
         id="circle9" />
    </pattern>
    <filter
       id="halo"
       x="120"
       y="112"
       width="1062"
       height="1062"
       filterUnits="userSpaceOnUse"
       color-interpolation-filters="sRGB">
      <feGaussianBlur
         stdDeviation="34"
         id="feGaussianBlur9" />
    </filter>
    <clipPath
       id="blobClip">
      <path
         d="M1076 644C1068 740 1002 826 900 884C811 935 689 962 578 944C438 920 314 847 268 724C223 607 254 472 349 368C447 260 599 215 737 244C861 269 964 351 1027 452C1062 509 1082 578 1076 644Z"
         id="path9" />
    </clipPath>
  </defs>
  <path
     d="M1038 628C1030 718 966 804 872 857C790 902 679 925 576 909C448 888 335 822 294 710C254 603 283 482 370 388C460 290 598 248 724 274C838 296 935 373 994 467C1027 519 1044 574 1038 628Z"
     stroke="url(#warm)"
     stroke-width="48"
     stroke-opacity="0.22"
     filter="url(#halo)"
     id="path10" />
  <g
     clip-path="url(#blobClip)"
     id="g13">
    <rect
       x="200"
       y="200"
       width="920"
       height="820"
       fill="url(#points)"
       id="rect10" />
    <path
       d="M182 744C324 579 559 492 800 518C986 539 1132 639 1188 778"
       stroke="url(#warm)"
       stroke-width="2.2"
       stroke-linecap="round"
       stroke-dasharray="1 13"
       id="path11" />
    <path
       d="M146 620C298 430 586 339 864 390C1059 426 1214 541 1268 696"
       stroke="url(#warm)"
       stroke-width="2.5"
       stroke-linecap="round"
       stroke-dasharray="1 14"
       id="path12" />
    <path
       d="M224 848C372 742 562 696 770 710C930 721 1087 783 1188 878"
       stroke="url(#warm)"
       stroke-width="2"
       stroke-linecap="round"
       stroke-dasharray="1 12"
       id="path13" />
  </g>
  <path
     d="M334 520C408 386 570 296 742 296C883 296 1018 355 1110 463"
     stroke="url(#warm)"
     stroke-width="10"
     stroke-linecap="round"
     stroke-opacity="0.88"
     id="path14" />
  <path
     d="M820 194C862 173 910 173 948 193C975 207 992 233 999 266"
     stroke="#F28F67"
     stroke-width="6"
     stroke-linecap="round"
     id="path15" />
  <circle
     cx="979"
     cy="273"
     r="8"
     fill="#F28F67"
     id="circle15" />
  <ellipse
     cx="636"
     cy="628"
     rx="456"
     ry="374"
     fill="url(#mist)"
     id="ellipse15" />
</svg>
