<?xml version="1.0" encoding="UTF-8"?>
<svg width="960" height="960" viewBox="0 0 960 960" fill="none" xmlns="http://www.w3.org/2000/svg">
  <defs>
    <radialGradient id="nebula" cx="0" cy="0" r="1" gradientUnits="userSpaceOnUse" gradientTransform="translate(520 470) rotate(36) scale(430 360)">
      <stop offset="0" stop-color="#FFFFFF" stop-opacity="0.28"/>
      <stop offset="1" stop-color="#FFFFFF" stop-opacity="0"/>
    </radialGradient>
    <linearGradient id="glow" x1="180" y1="200" x2="760" y2="780" gradientUnits="userSpaceOnUse">
      <stop offset="0" stop-color="#FFFFFF"/>
      <stop offset="1" stop-color="#C2401F"/>
    </linearGradient>
    <pattern id="stars" width="64" height="64" patternUnits="userSpaceOnUse">
      <circle cx="7" cy="8" r="0.9" fill="#FFFFFF" fill-opacity="0.7"/>
      <circle cx="24" cy="17" r="1.4" fill="#FFFFFF" fill-opacity="0.54"/>
      <circle cx="46" cy="11" r="0.8" fill="#F2E2DB" fill-opacity="0.56"/>
      <circle cx="56" cy="30" r="1.2" fill="#FFFFFF" fill-opacity="0.5"/>
      <circle cx="16" cy="37" r="0.85" fill="#FFFFFF" fill-opacity="0.58"/>
      <circle cx="34" cy="47" r="1.7" fill="#C2401F" fill-opacity="0.34"/>
      <circle cx="50" cy="54" r="1.1" fill="#FFFFFF" fill-opacity="0.52"/>
    </pattern>
    <clipPath id="mark">
      <path d="M128 212H278L418 480L278 748H128L272 480L128 212Z"/>
      <path d="M326 142H490L654 480L490 818H326L494 480L326 142Z"/>
    </clipPath>
  </defs>

  <g clip-path="url(#mark)">
    <rect width="960" height="960" fill="url(#stars)"/>
    <rect width="960" height="960" fill="url(#nebula)"/>
    <circle cx="290" cy="360" r="4.6" fill="#FFFFFF" fill-opacity="0.68"/>
    <circle cx="244" cy="514" r="5.2" fill="#FFFFFF" fill-opacity="0.58"/>
    <circle cx="378" cy="588" r="5.8" fill="#F8ECE6" fill-opacity="0.55"/>
    <circle cx="505" cy="282" r="4.9" fill="#FFFFFF" fill-opacity="0.62"/>
    <circle cx="542" cy="474" r="6.1" fill="#FFFFFF" fill-opacity="0.52"/>
    <circle cx="468" cy="666" r="5.1" fill="#C2401F" fill-opacity="0.42"/>
  </g>

  <path d="M128 212H278L418 480L278 748H128L272 480L128 212Z" stroke="url(#glow)" stroke-opacity="0.74" stroke-width="5"/>
  <path d="M326 142H490L654 480L490 818H326L494 480L326 142Z" stroke="url(#glow)" stroke-opacity="0.82" stroke-width="5"/>
</svg>
